<svg width="129" height="49" viewBox="0 0 129 49" fill="none" xmlns="http://www.w3.org/2000/svg">
<path d="M67.547 14.55C67.547 15.9915 66.3858 17.1527 64.9444 17.1527C63.5029 17.1527 62.3418 15.9915 62.3418 14.55C62.3418 13.1086 63.4629 11.9474 64.9444 11.9474C66.4258 11.9875 67.547 13.1486 67.547 14.55ZM56.8162 19.7953C56.8162 20.0355 56.8162 20.4359 56.8162 20.4359C56.8162 20.4359 55.575 18.8343 52.9324 18.8343C48.568 18.8343 45.1646 22.1577 45.1646 26.7623C45.1646 31.3268 48.5279 34.6902 52.9324 34.6902C55.615 34.6902 56.8162 33.0485 56.8162 33.0485V33.7292C56.8162 34.0495 57.0565 34.2898 57.3768 34.2898H60.62V19.2347C60.62 19.2347 57.6571 19.2347 57.3768 19.2347C57.0565 19.2347 56.8162 19.515 56.8162 19.7953ZM56.8162 29.4449C56.2156 30.3258 55.0144 31.0866 53.573 31.0866C51.0104 31.0866 49.0485 29.485 49.0485 26.7623C49.0485 24.0395 51.0104 22.4379 53.573 22.4379C54.9744 22.4379 56.2557 23.2387 56.8162 24.0796V29.4449ZM63.0224 19.2347H66.8663V34.2898H63.0224V19.2347ZM120.44 18.8343C117.797 18.8343 116.556 20.4359 116.556 20.4359V11.9875H112.712V34.2898C112.712 34.2898 115.675 34.2898 115.955 34.2898C116.276 34.2898 116.516 34.0095 116.516 33.7292V33.0485C116.516 33.0485 117.757 34.6902 120.4 34.6902C124.764 34.6902 128.168 31.3268 128.168 26.7623C128.168 22.1977 124.764 18.8343 120.44 18.8343ZM119.799 31.0465C118.318 31.0465 117.157 30.2858 116.556 29.4049V24.0395C117.157 23.2387 118.438 22.3979 119.799 22.3979C122.362 22.3979 124.324 23.9995 124.324 26.7222C124.324 29.4449 122.362 31.0465 119.799 31.0465ZM110.71 25.3609V34.3298H106.866V25.8013C106.866 23.3188 106.065 22.3178 103.903 22.3178C102.742 22.3178 101.541 22.9184 100.78 23.7993V34.2898H96.9363V19.2347H99.9794C100.3 19.2347 100.54 19.515 100.54 19.7953V20.4359C101.661 19.2748 103.143 18.8343 104.624 18.8343C106.306 18.8343 107.707 19.3148 108.828 20.2758C110.19 21.3969 110.71 22.8383 110.71 25.3609ZM87.607 18.8343C84.9644 18.8343 83.7231 20.4359 83.7231 20.4359V11.9875H79.8793V34.2898C79.8793 34.2898 82.8423 34.2898 83.1225 34.2898C83.4429 34.2898 83.6831 34.0095 83.6831 33.7292V33.0485C83.6831 33.0485 84.9243 34.6902 87.567 34.6902C91.9313 34.6902 95.3347 31.3268 95.3347 26.7623C95.3748 22.1977 91.9714 18.8343 87.607 18.8343ZM86.9664 31.0465C85.4849 31.0465 84.3237 30.2858 83.7231 29.4049V24.0395C84.3237 23.2387 85.605 22.3979 86.9664 22.3979C89.5289 22.3979 91.4909 23.9995 91.4909 26.7222C91.4909 29.4449 89.5289 31.0465 86.9664 31.0465ZM76.556 18.8343C77.7171 18.8343 78.3177 19.0345 78.3177 19.0345V22.5981C78.3177 22.5981 75.1145 21.517 73.1125 23.7993V34.3298H69.2687V19.2347C69.2687 19.2347 72.2317 19.2347 72.5119 19.2347C72.8322 19.2347 73.0725 19.515 73.0725 19.7953V20.4359C73.7932 19.5951 75.3548 18.8343 76.556 18.8343ZM36.6361 32.9284C36.4359 32.4479 36.2357 31.9274 36.0355 31.487C35.7151 30.7663 35.3948 30.0856 35.1145 29.4449L35.0745 29.4049C32.3117 23.3989 29.3488 17.3128 26.2257 11.3068L26.1055 11.0666C25.7852 10.466 25.4649 9.82533 25.1446 9.18468C24.7442 8.46396 24.3438 7.7032 23.7031 6.98248C22.4218 5.38088 20.58 4.5 18.618 4.5C16.616 4.5 14.8142 5.38088 13.4929 6.9024C12.8923 7.62312 12.4519 8.38388 12.0515 9.1046C11.7312 9.74525 11.4108 10.3859 11.0905 10.9865L10.9704 11.2267C7.88732 17.2327 4.88431 23.3188 2.12155 29.3248L2.08151 29.4049C1.80123 30.0455 1.48091 30.7262 1.16059 31.4469C0.960391 31.8874 0.760191 32.3679 0.559991 32.8884C0.0394705 34.3699 -0.12069 35.7713 0.0795105 37.2127C0.519951 40.2157 2.52195 42.7382 5.28471 43.8594C6.32576 44.2998 7.40684 44.5 8.52796 44.5C8.84828 44.5 9.24868 44.46 9.569 44.4199C10.8903 44.2598 12.2517 43.8193 13.573 43.0586C15.2146 42.1376 16.7762 40.8163 18.538 38.8944C20.2997 40.8163 21.9013 42.1376 23.5029 43.0586C24.8243 43.8193 26.1856 44.2598 27.5069 44.4199C27.8272 44.46 28.2277 44.5 28.548 44.5C29.6691 44.5 30.7902 44.2998 31.7912 43.8594C34.594 42.7382 36.556 40.1757 36.9964 37.2127C37.3167 35.8113 37.1566 34.4099 36.6361 32.9284ZM18.578 35.0105C16.4158 32.2878 15.0144 29.7252 14.534 27.5631C14.3338 26.6421 14.2937 25.8413 14.4138 25.1206C14.4939 24.48 14.7342 23.9194 15.0545 23.4389C15.8152 22.3579 17.0965 21.6772 18.578 21.6772C20.0595 21.6772 21.3808 22.3178 22.1015 23.4389C22.4218 23.9194 22.6621 24.48 22.7422 25.1206C22.8623 25.8413 22.8222 26.6822 22.622 27.5631C22.1416 29.6852 20.7402 32.2477 18.578 35.0105ZM34.554 36.8924C34.2737 38.9745 32.8723 40.7763 30.9103 41.5771C29.9494 41.9775 28.9083 42.0976 27.8673 41.9775C26.8663 41.8574 25.8653 41.537 24.8243 40.9364C23.3828 40.1356 21.9414 38.8944 20.2597 37.0526C22.9023 33.8093 24.5039 30.8463 25.1045 28.2037C25.3848 26.9625 25.4249 25.8413 25.3047 24.8003C25.1446 23.7993 24.7842 22.8784 24.2236 22.0776C22.9824 20.2758 20.9003 19.2347 18.578 19.2347C16.2557 19.2347 14.1736 20.3158 12.9324 22.0776C12.3718 22.8784 12.0114 23.7993 11.8513 24.8003C11.6911 25.8413 11.7312 27.0025 12.0515 28.2037C12.6521 30.8463 14.2937 33.8493 16.8963 37.0926C15.2547 38.9344 13.7732 40.1757 12.3318 40.9765C11.2907 41.5771 10.2897 41.8974 9.28872 42.0175C8.20764 42.1376 7.1666 41.9775 6.24568 41.6171C4.28371 40.8163 2.88231 39.0145 2.60203 36.9324C2.48191 35.9314 2.56199 34.9304 2.96239 33.8093C3.08251 33.4089 3.28271 33.0085 3.48291 32.528C3.76319 31.8874 4.08351 31.2067 4.40383 30.526L4.44387 30.4459C7.20664 24.48 10.1696 18.3939 13.2527 12.468L13.3728 12.2277C13.6931 11.6271 14.0134 10.9865 14.3338 10.3859C14.6541 9.74524 15.0144 9.14464 15.4549 8.62412C16.2957 7.66316 17.4168 7.14264 18.6581 7.14264C19.8993 7.14264 21.0204 7.66316 21.8613 8.62412C22.3017 9.14464 22.6621 9.74524 22.9824 10.3859C23.3027 10.9865 23.623 11.6271 23.9434 12.2277L24.0635 12.468C27.1065 18.4339 30.0695 24.52 32.8323 30.486V30.526C33.1526 31.1667 33.4329 31.8874 33.7532 32.528C33.9534 33.0085 34.1536 33.4089 34.2737 33.8093C34.594 34.8503 34.7141 35.8514 34.554 36.8924Z" fill="#1D2939"/>
</svg>
