<svg width="148" height="49" viewBox="0 0 148 49" fill="none" xmlns="http://www.w3.org/2000/svg">
<path d="M0.239289 26.7057L15.7943 42.2607C7.85086 40.918 1.582 34.6491 0.239289 26.7057Z" fill="#1D2939"/>
<path d="M0 22.4828L20.0172 42.5C21.2077 42.4364 22.3691 42.2633 23.4914 41.9906L0.509432 19.0086C0.236716 20.131 0.0636084 21.2923 0 22.4828Z" fill="#1D2939"/>
<path d="M1.50586 16.0212L26.4789 40.9943C27.3885 40.6039 28.2615 40.1446 29.0913 39.623L2.87713 13.4088C2.3555 14.2386 1.89623 15.1116 1.50586 16.0212Z" fill="#1D2939"/>
<path d="M4.56891 11.1172C8.05582 7.06555 13.2214 4.5 18.9863 4.5C29.4873 4.5 38 13.0127 38 23.5137C38 29.2786 35.4345 34.4442 31.3828 37.9311L4.56891 11.1172Z" fill="#1D2939"/>
<path d="M57.8105 34.8994H71.7423V31.1056H62.4119V13.1358H57.8105V34.8994ZM74.7044 34.8994H79.2315V18.5767H74.7044V34.8994ZM76.9785 16.6426C78.2964 16.6426 79.4334 15.6437 79.4334 14.3473C79.4334 13.0614 78.2964 12.0625 76.9785 12.0625C75.6715 12.0625 74.5345 13.0614 74.5345 14.3473C74.5345 15.6437 75.6715 16.6426 76.9785 16.6426ZM87.3849 25.4629C87.3954 23.3588 88.6494 22.1261 90.4772 22.1261C92.2945 22.1261 93.3891 23.3163 93.3784 25.3141V34.8994H97.9054V24.5065C97.9054 20.7021 95.6738 18.3642 92.2732 18.3642C89.8503 18.3642 88.0968 19.5544 87.3637 21.4566H87.1723V18.5767H82.8578V34.8994H87.3849V25.4629ZM108.955 35.2183C113.003 35.2183 115.713 33.2522 116.351 30.2237L112.174 29.9474C111.717 31.1907 110.538 31.8389 109.04 31.8389C106.776 31.8389 105.341 30.3405 105.341 27.907V27.8964H116.457V26.6531C116.457 21.1059 113.099 18.3642 108.784 18.3642C103.981 18.3642 100.868 21.7754 100.868 26.8125C100.868 31.9877 103.939 35.2183 108.955 35.2183ZM105.341 25.0909C105.427 23.2312 106.85 21.7435 108.859 21.7435C110.814 21.7435 112.174 23.1462 112.196 25.0909H105.341ZM124.13 35.2077C126.542 35.2077 128.104 34.1556 128.901 32.636H129.029V34.8994H133.322V23.8901C133.322 20.0007 129.996 18.3642 126.467 18.3642C122.451 18.3642 119.911 20.2345 119.284 23.21L123.471 23.5501C123.779 22.4661 124.746 21.6691 126.372 21.6691C127.934 21.6691 128.784 22.4342 128.795 23.8051C128.805 24.8784 127.679 25.0378 124.842 25.3141C121.611 25.6116 118.71 26.6956 118.71 30.3405C118.71 33.5711 121.016 35.2077 124.13 35.2077ZM125.426 32.0833C124.034 32.0833 123.035 31.4351 123.035 30.1917C123.035 28.9166 124.087 28.2895 125.681 28.0664C126.669 27.9283 128.285 27.6945 128.827 27.3332V29.0654C128.827 30.7763 127.413 32.0833 125.426 32.0833ZM136.834 34.8994H141.361V25.6648C141.371 23.6669 142.817 22.2961 144.645 22.2961C145.261 22.2961 145.76 22.4661 146.185 22.6787L147.546 18.938C146.951 18.5767 146.185 18.3429 145.314 18.3429C143.476 18.3429 141.988 19.4056 141.393 21.4247H141.223V18.5767H136.834V34.8994Z" fill="#1D2939"/>
</svg>
