<svg width="143" height="49" viewBox="0 0 143 49" fill="none" xmlns="http://www.w3.org/2000/svg">
<path d="M53.2123 13.2715H45.3371C44.7982 13.2715 44.3399 13.663 44.2559 14.195L41.0708 34.3891C41.0074 34.7875 41.316 35.1468 41.7202 35.1468H45.4799C46.0188 35.1468 46.4771 34.7553 46.5612 34.2222L47.4202 28.7755C47.5031 28.2423 47.9626 27.8508 48.5003 27.8508H50.9934C56.1809 27.8508 59.1749 25.3405 59.9568 20.366C60.3091 18.1896 59.9717 16.4796 58.9526 15.282C57.8334 13.967 55.8482 13.2715 53.2123 13.2715ZM54.1209 20.6469C53.6902 23.4728 51.5311 23.4728 49.4434 23.4728H48.2551L49.0888 18.1954C49.1383 17.8764 49.4146 17.6415 49.7371 17.6415H50.2817C51.7039 17.6415 53.0454 17.6415 53.7386 18.4522C54.152 18.9358 54.2786 19.6543 54.1209 20.6469Z" fill="#1D2939"/>
<path d="M76.7529 20.556H72.9817C72.6605 20.556 72.3829 20.7909 72.3334 21.1098L72.1665 22.1646L71.9028 21.7823C71.0863 20.5974 69.2658 20.2013 67.4487 20.2013C63.2814 20.2013 59.722 23.3576 59.0288 27.7852C58.6684 29.9938 59.1808 32.1057 60.4337 33.5784C61.5829 34.9326 63.2273 35.4969 65.1837 35.4969C68.5415 35.4969 70.4035 33.3378 70.4035 33.3378L70.2354 34.3857C70.172 34.7864 70.4806 35.1457 70.8825 35.1457H74.2795C74.8195 35.1457 75.2756 34.7541 75.3608 34.221L77.3989 21.3137C77.4634 20.9164 77.156 20.556 76.7529 20.556ZM71.4963 27.8957C71.1324 30.0502 69.4224 31.4965 67.2414 31.4965C66.1463 31.4965 65.2712 31.1453 64.7093 30.4797C64.1519 29.8187 63.94 28.878 64.1174 27.8301C64.4571 25.694 66.1959 24.2005 68.3434 24.2005C69.4143 24.2005 70.2849 24.5563 70.8583 25.2277C71.4329 25.9059 71.6609 26.8524 71.4963 27.8957Z" fill="#1D2939"/>
<path d="M96.8376 20.5559H93.048C92.6864 20.5559 92.3467 20.7355 92.1417 21.0361L86.915 28.7351L84.6995 21.3366C84.5602 20.8737 84.133 20.5559 83.6493 20.5559H79.9253C79.4728 20.5559 79.1584 20.9981 79.3023 21.4242L83.4766 33.674L79.5522 39.2139C79.2436 39.6503 79.5545 40.2503 80.0877 40.2503H83.8727C84.232 40.2503 84.5682 40.0752 84.772 39.7805L97.3765 21.5865C97.6782 21.1512 97.3685 20.5559 96.8376 20.5559Z" fill="#1D2939"/>
<path d="M109.384 13.2717H101.508C100.97 13.2717 100.512 13.6632 100.428 14.1952L97.2426 34.3894C97.1793 34.7878 97.4879 35.1471 97.8898 35.1471H101.932C102.307 35.1471 102.628 34.873 102.687 34.4999L103.591 28.7757C103.674 28.2426 104.133 27.8511 104.671 27.8511H107.163C112.352 27.8511 115.344 25.3408 116.127 20.3662C116.481 18.1898 116.141 16.4798 115.122 15.2823C114.004 13.9672 112.02 13.2717 109.384 13.2717ZM110.293 20.6472C109.863 23.473 107.704 23.473 105.615 23.473H104.428L105.263 18.1956C105.312 17.8766 105.587 17.6417 105.91 17.6417H106.455C107.876 17.6417 109.218 17.6417 109.912 18.4524C110.325 18.936 110.451 19.6546 110.293 20.6472Z" fill="#1D2939"/>
<path d="M132.924 20.5562H129.155C128.831 20.5562 128.556 20.7911 128.507 21.1101L128.341 22.1649L128.076 21.7826C127.259 20.5977 125.44 20.2015 123.623 20.2015C119.455 20.2015 115.897 23.3578 115.204 27.7854C114.845 29.994 115.355 32.1059 116.608 33.5787C117.759 34.9329 119.401 35.4971 121.358 35.4971C124.716 35.4971 126.578 33.338 126.578 33.338L126.409 34.3859C126.346 34.7866 126.655 35.1459 127.059 35.1459H130.455C130.992 35.1459 131.451 34.7544 131.535 34.2212L133.574 21.3139C133.636 20.9166 133.328 20.5562 132.924 20.5562ZM127.667 27.896C127.305 30.0504 125.593 31.4967 123.412 31.4967C122.319 31.4967 121.442 31.1455 120.88 30.48C120.323 29.819 120.113 28.8782 120.288 27.8303C120.63 25.6943 122.366 24.2007 124.514 24.2007C125.585 24.2007 126.456 24.5566 127.029 25.2279C127.606 25.9061 127.834 26.8527 127.667 27.896Z" fill="#1D2939"/>
<path d="M137.369 13.8255L134.137 34.3893C134.074 34.7877 134.382 35.147 134.784 35.147H138.034C138.574 35.147 139.032 34.7555 139.115 34.2223L142.303 14.0294C142.366 13.6309 142.057 13.2705 141.655 13.2705H138.017C137.695 13.2717 137.419 13.5066 137.369 13.8255Z" fill="#1D2939"/>
<path d="M8.36683 39.0718L8.96907 35.2465L7.62756 35.2154H1.22168L5.67344 6.98829C5.68725 6.90308 5.73216 6.82363 5.7978 6.7672C5.86344 6.71078 5.9475 6.67969 6.03501 6.67969H16.8362C20.422 6.67969 22.8966 7.42587 24.1886 8.89866C24.7943 9.58957 25.1801 10.3116 25.3666 11.1061C25.5624 11.9398 25.5659 12.9359 25.3747 14.1507L25.3609 14.2394V15.0178L25.9666 15.361C26.4767 15.6316 26.882 15.9413 27.1929 16.296C27.7111 16.8867 28.0462 17.6375 28.1879 18.5276C28.3341 19.4431 28.2857 20.5324 28.0462 21.7657C27.7699 23.1844 27.3231 24.4199 26.7197 25.431C26.1646 26.3625 25.4576 27.1352 24.6182 27.734C23.8167 28.3028 22.8644 28.7347 21.7877 29.011C20.7445 29.2828 19.555 29.4198 18.2503 29.4198H17.4097C16.8086 29.4198 16.2248 29.6363 15.7665 30.0244C15.307 30.4205 15.003 30.9617 14.9097 31.5536L14.8464 31.8979L13.7824 38.64L13.734 38.8876C13.7214 38.9659 13.6995 39.005 13.6673 39.0315C13.6385 39.0557 13.597 39.0718 13.5567 39.0718H8.36683Z" fill="#1D2939"/>
<path d="M26.5401 14.3281C26.5079 14.5342 26.471 14.745 26.4296 14.9615C25.0052 22.2747 20.132 24.8012 13.908 24.8012H10.739C9.9779 24.8012 9.3365 25.3539 9.2179 26.1047L7.59541 36.3946L7.13596 39.3114C7.0588 39.8042 7.4388 40.2487 7.93626 40.2487H13.5568C14.2224 40.2487 14.7878 39.7651 14.8926 39.1087L14.9478 38.8232L16.0061 32.1075L16.074 31.739C16.1777 31.0804 16.7442 30.5967 17.4098 30.5967H18.2504C23.6959 30.5967 27.9588 28.3858 29.2047 21.988C29.7252 19.3153 29.4558 17.0837 28.0786 15.5142C27.6617 15.0409 27.1447 14.6482 26.5401 14.3281Z" fill="#1D2939"/>
<path d="M25.05 13.7349C24.8323 13.6716 24.6078 13.614 24.3775 13.5622C24.146 13.5115 23.9088 13.4666 23.6647 13.4275C22.8103 13.2893 21.8741 13.2236 20.8711 13.2236H12.4052C12.1967 13.2236 11.9987 13.2708 11.8213 13.3561C11.431 13.5438 11.1408 13.9134 11.0706 14.3659L9.26959 25.7728L9.21777 26.1056C9.33638 25.3548 9.97777 24.8021 10.7389 24.8021H13.9079C20.1318 24.8021 25.005 22.2745 26.4295 14.9624C26.4721 14.7459 26.5078 14.5352 26.54 14.3291C26.1796 14.1379 25.7892 13.9744 25.3689 13.8351C25.2653 13.8005 25.1582 13.7671 25.05 13.7349Z" fill="#1D2939"/>
<path d="M11.0707 14.3655C11.1409 13.913 11.4311 13.5433 11.8214 13.3568C11.9999 13.2716 12.1968 13.2244 12.4053 13.2244H20.8712C21.8742 13.2244 22.8103 13.29 23.6648 13.4282C23.9089 13.4673 24.1461 13.5122 24.3776 13.5629C24.6079 13.6147 24.8324 13.6723 25.05 13.7356C25.1583 13.7679 25.2654 13.8013 25.3702 13.8347C25.7905 13.974 26.1808 14.1387 26.5413 14.3287C26.965 11.6261 26.5378 9.78594 25.0765 8.1197C23.4656 6.28533 20.558 5.5 16.8374 5.5H6.03623C5.27623 5.5 4.62793 6.05273 4.51047 6.80467L0.0115023 35.3219C-0.0771644 35.8862 0.358108 36.3952 0.926957 36.3952H7.59538L9.26968 25.7724L11.0707 14.3655Z" fill="#1D2939"/>
</svg>
