<svg width="68" height="31" viewBox="0 0 68 31" fill="none" xmlns="http://www.w3.org/2000/svg">
<path d="M0.5 3.97059L22.541 3.40909L22.4116 6.09626L16.373 6.65775L13.6987 30.2406L8.9541 30.6417L6.79744 7.54011L0.758799 8.1016L0.5 3.97059Z" fill="#101828"/>
<path d="M28.4247 30.6818L26.2249 10.8289L35.4554 9.50535L32.6948 30.3209L28.4247 30.6818ZM27.562 6.37701C26.7856 5.62834 26.3974 4.74599 26.3974 3.72995C26.3974 2.7139 26.7856 1.84492 27.562 1.12299C28.3672 0.374331 29.3161 0 30.4088 0C31.5015 0 32.436 0.374331 33.2124 1.12299C34.0176 1.84492 34.4202 2.7139 34.4202 3.72995C34.4202 4.74599 34.0176 5.62834 33.2124 6.37701C32.436 7.09893 31.5015 7.45989 30.4088 7.45989C29.3161 7.45989 28.3672 7.09893 27.562 6.37701Z" fill="#FE5C36"/>
<path d="M60.9693 30.6818L59.0283 13.2754L51.3506 14.2781L49.2371 30.3209L44.9669 30.6818L43.2416 15.3209L39.5753 15.8021L39.3165 11.6711L43.1984 11.3904C43.3135 9.54545 43.6729 7.90107 44.2768 6.45722C44.8806 5.01337 45.6427 3.85027 46.5628 2.96791C48.2882 1.25669 50.3154 0.267381 52.6446 0L54.2405 6.85829C51.71 7.68717 49.8841 9.0508 48.7626 10.9492L68 9.50535L65.2395 30.3209L60.9693 30.6818ZM60.1066 6.37701C59.3302 5.62834 58.942 4.74599 58.942 3.72995C58.942 2.7139 59.3302 1.84492 60.1066 1.12299C60.9118 0.374331 61.8607 0 62.9534 0C64.0461 0 64.9807 0.374331 65.7571 1.12299C66.5622 1.84492 66.9648 2.7139 66.9648 3.72995C66.9648 4.74599 66.5622 5.62834 65.7571 6.37701C64.9807 7.09893 64.0461 7.45989 62.9534 7.45989C61.8607 7.45989 60.9118 7.09893 60.1066 6.37701Z" fill="#101828"/>
</svg>
