<svg width="72" height="49" viewBox="0 0 72 49" fill="none" xmlns="http://www.w3.org/2000/svg">
<g clip-path="url(#clip0_2733_20985)">
<path d="M4.14324 29.3547C4.44757 30.1623 4.8689 30.8528 5.40732 31.4263C5.94573 31.9998 6.5836 32.4387 7.32091 32.743C8.0583 33.0474 8.86002 33.1995 9.72614 33.1995C10.5689 33.1995 11.3589 33.0415 12.0963 32.7254C12.8337 32.4094 13.4773 31.9646 14.0274 31.3912C14.5775 30.8176 15.0047 30.133 15.309 29.3371C15.6134 28.5412 15.7655 27.6518 15.7655 26.6686V11.5H19.4523V36.0787H15.8006V33.7963C14.9813 34.6624 14.0157 35.3295 12.9038 35.7978C11.7919 36.2659 10.5923 36.5 9.30481 36.5C7.99389 36.5 6.77084 36.2717 5.6355 35.8153C4.50024 35.3588 3.51703 34.7093 2.6861 33.8666C1.85517 33.0238 1.19967 32.0116 0.719831 30.8294C0.239918 29.6473 0 28.3306 0 26.8792V11.5H3.68679V26.6686C3.68679 27.6518 3.83892 28.5471 4.14324 29.3547Z" fill="#1D2939"/>
<path d="M25.8073 11.5V20.4536C26.6266 19.6344 27.5747 18.9848 28.6514 18.5049C29.7282 18.025 30.8987 17.7851 32.1626 17.7851C33.4736 17.7851 34.7024 18.0308 35.8494 18.5224C36.9964 19.014 37.9912 19.6811 38.834 20.5239C39.6767 21.3666 40.3439 22.3614 40.8354 23.5084C41.327 24.6555 41.5727 25.8727 41.5727 27.1601C41.5727 28.4475 41.327 29.6589 40.8354 30.7942C40.3439 31.9295 39.6767 32.9186 38.834 33.7611C37.9912 34.6039 36.9964 35.271 35.8494 35.7626C34.7024 36.2542 33.4735 36.4999 32.1626 36.4999C30.8986 36.4999 29.7224 36.26 28.6339 35.7801C27.5454 35.3003 26.5915 34.6507 25.7722 33.8314V36.0786H22.261V11.5H25.8073ZM26.2111 29.5829C26.5271 30.332 26.966 30.9874 27.5278 31.5492C28.0896 32.111 28.7451 32.5558 29.4941 32.8835C30.2432 33.2112 31.0508 33.3751 31.9169 33.3751C32.7596 33.3751 33.5555 33.2112 34.3045 32.8835C35.0536 32.5558 35.7031 32.1111 36.2533 31.5492C36.8034 30.9875 37.2423 30.332 37.57 29.5829C37.8977 28.8338 38.0615 28.0263 38.0615 27.1601C38.0615 26.294 37.8977 25.4806 37.57 24.7198C37.2423 23.959 36.8034 23.2978 36.2533 22.736C35.7031 22.1742 35.0536 21.7353 34.3045 21.4193C33.5554 21.1033 32.7596 20.9452 31.9169 20.9452C31.0742 20.9452 30.2783 21.1032 29.5293 21.4193C28.7803 21.7353 28.1248 22.1742 27.563 22.736C27.0012 23.2978 26.5564 23.959 26.2287 24.7198C25.901 25.4806 25.7372 26.294 25.7372 27.1601C25.7371 28.0263 25.8951 28.8338 26.2111 29.5829Z" fill="#1D2939"/>
<path d="M43.5737 23.5435C44.0418 22.4199 44.6856 21.431 45.5048 20.5766C46.3241 19.7222 47.2956 19.0492 48.4192 18.5576C49.5428 18.0661 50.76 17.8203 52.0709 17.8203C53.3583 17.8203 54.5522 18.0544 55.6524 18.5225C56.7525 18.9907 57.7006 19.6403 58.4965 20.4713C59.2923 21.3022 59.9127 22.2854 60.3574 23.4207C60.8022 24.556 61.0245 25.7908 61.0245 27.1251V28.2838H46.4529C46.57 29.0095 46.8041 29.6825 47.1552 30.3027C47.5064 30.923 47.9452 31.4614 48.4719 31.9179C48.9986 32.3744 49.5955 32.7314 50.2626 32.9888C50.9298 33.2463 51.6378 33.3751 52.3869 33.3751C54.5171 33.3751 56.2377 32.4972 57.5485 30.7416L60.1117 32.6376C59.2222 33.8315 58.122 34.7678 56.8112 35.4466C55.5003 36.1255 54.0256 36.4649 52.387 36.4649C51.0527 36.4649 49.8063 36.2307 48.6476 35.7626C47.4888 35.2945 46.4823 34.639 45.6279 33.7963C44.7735 32.9535 44.1005 31.9646 43.609 30.8293C43.1174 29.6941 42.8716 28.4592 42.8716 27.125C42.8714 25.861 43.1056 24.6671 43.5737 23.5435ZM48.507 22.1565C47.5121 22.9876 46.8509 24.0936 46.5232 25.4747H57.4432C57.1388 24.0936 56.4892 22.9876 55.4944 22.1565C54.4995 21.3256 53.335 20.9101 52.0007 20.9101C50.6664 20.9101 49.5019 21.3256 48.507 22.1565Z" fill="#1D2939"/>
<path d="M67.6607 22.5604C66.9117 23.3797 66.5371 24.4915 66.5371 25.8961V36.0788H62.9907V18.1714H66.5019V20.3835C66.9467 19.6578 67.5261 19.0843 68.24 18.663C68.9539 18.2415 69.8025 18.0308 70.7857 18.0308H72.0146V21.3314H70.5399C69.3695 21.3315 68.4097 21.7411 67.6607 22.5604Z" fill="#1D2939"/>
</g>
<defs>
<clipPath id="clip0_2733_20985">
<rect width="72" height="48" fill="white" transform="translate(0 0.5)"/>
</clipPath>
</defs>
</svg>
