<svg width="132" height="49" viewBox="0 0 132 49" fill="none" xmlns="http://www.w3.org/2000/svg">
<g clip-path="url(#clip0_2733_20982)">
<path d="M21.8949 38.4732L13.2914 38.3157C10.5057 38.261 7.71314 38.3705 4.9822 37.8024C0.827612 36.9537 0.5333 32.7923 0.225299 29.3016C-0.199057 24.3941 -0.0347901 19.3976 0.766012 14.5312C1.21775 11.8003 2.99731 10.1713 5.74878 9.99333C15.0367 9.34995 24.3863 9.42524 33.6537 9.7264C34.6324 9.75378 35.618 9.90436 36.5831 10.0755C41.3468 10.9105 41.4632 15.6263 41.7712 19.5961C42.0792 23.607 41.9491 27.6384 41.3605 31.6219C40.8883 34.9209 39.9848 37.686 36.1724 37.953C31.395 38.302 26.7271 38.5827 21.9359 38.4937C21.9359 38.4732 21.9086 38.4732 21.8949 38.4732ZM16.8368 30.1229C20.437 28.0559 23.9687 26.0231 27.5484 23.9697C23.9414 21.9027 20.4165 19.8699 16.8368 17.8166V30.1229Z" fill="#1D2939"/>
<path d="M111.004 34.7216C110.839 35.3923 110.696 35.9194 110.552 36.4806H107.184V10.5059H111.113V20.0881C111.319 19.828 111.421 19.7185 111.51 19.6022C112.181 18.6782 113.05 18.0758 114.173 17.8431C115.959 17.4941 117.485 18.2812 118.026 19.9991C118.375 21.0669 118.601 22.2099 118.628 23.3255C118.683 26.1934 118.642 29.0544 118.539 31.9222C118.498 32.7983 118.231 33.6949 117.896 34.5162C116.794 37.2266 113.194 37.6373 111.408 35.2897C111.298 35.1459 111.195 34.9885 111.004 34.7216ZM111.195 32.326C111.195 33.0994 111.606 33.5717 112.379 33.7497C113.139 33.9276 113.755 33.6333 114.063 32.9283C114.193 32.634 114.323 32.326 114.33 32.018C114.405 29.116 114.474 26.2139 114.494 23.305C114.494 22.7643 114.364 22.203 114.2 21.676C113.892 20.7246 113.043 20.444 112.208 20.9984C111.579 21.4228 111.195 22.0251 111.195 22.8259V32.326ZM100.518 18.2127H104.631V36.4943H101.421C101.305 35.803 101.189 35.0912 101.052 34.2561C100.833 34.5778 100.703 34.7832 100.566 34.9885C99.4981 36.5285 97.9855 37.0555 96.1991 36.7749C94.6728 36.5285 93.7556 35.3513 93.5503 33.4211C93.4887 32.8462 93.4613 32.2644 93.4613 31.6895C93.4476 27.4117 93.4613 23.1202 93.4613 18.8424V18.199H97.6228V18.9451C97.6228 23.0791 97.6091 27.2064 97.6364 31.3404C97.6364 31.929 97.698 32.5382 97.8007 33.1268C97.9171 33.7291 98.3551 33.9481 98.9437 33.9071C99.8951 33.8318 100.552 33.1268 100.552 32.1823V19.0204C100.518 18.7534 100.518 18.507 100.518 18.2127ZM72.1956 18.199H76.3296V18.9725C76.3296 23.086 76.3159 27.1927 76.3433 31.2925C76.3433 31.8811 76.3981 32.4903 76.5213 33.0652C76.6787 33.7428 77.0757 33.9618 77.7533 33.8729C78.691 33.7428 79.259 33.0926 79.2659 32.1412V18.2264H83.3794V36.4943H80.183C80.0667 35.8167 79.9503 35.1186 79.7998 34.2356C79.5944 34.5436 79.4781 34.7216 79.3617 34.9064C78.294 36.4738 76.795 37.0487 74.9676 36.7681C73.5029 36.549 72.6062 35.4676 72.3324 33.6949C72.2572 33.1405 72.2024 32.5929 72.2024 32.0385C72.1887 27.5965 72.1887 23.1339 72.1887 18.6918L72.1956 18.199ZM70.0738 27.9592C70.0601 28.5752 70.019 29.1912 69.9848 29.8072C69.8274 31.6553 69.7521 34.2767 68.26 35.625C67.3086 36.4738 66.104 36.7818 64.8583 36.8228C64.3039 36.8365 63.7426 36.8365 63.1882 36.7612C60.5668 36.3642 59.3485 35.2075 58.9104 32.326C58.4108 28.9996 58.3697 25.6184 58.9652 22.292C59.5812 18.8493 61.703 17.6309 65.002 17.8568C68.082 18.0758 69.4578 20.095 69.8205 22.9696C70.019 24.6191 70.1148 26.2892 70.0738 27.9592ZM65.885 27.3296C65.885 26.1591 65.9123 24.9819 65.8713 23.8115C65.8439 23.1339 65.7549 22.4494 65.6112 21.7787C65.4469 21.0053 64.9541 20.6357 64.3381 20.6494C63.7358 20.663 63.3114 21.0326 63.0924 21.7513C63.0171 22.0182 62.935 22.292 62.935 22.559C62.935 24.3933 62.9213 26.2344 62.9076 28.0688C62.8939 29.7799 62.6749 31.5731 63.2156 33.2089C63.3799 33.7086 63.8042 33.9824 64.3586 33.9824C64.8994 33.9824 65.2553 33.7154 65.4538 33.2363C65.6112 32.8667 65.7481 32.4629 65.7481 32.0659C65.796 30.4917 65.885 28.9106 65.885 27.3296ZM52.8736 23.8868C53.2364 22.1141 53.5786 20.3824 53.9551 18.6439C54.4273 16.4332 54.9543 14.2224 55.4198 12.0048C55.5361 11.4641 55.7551 11.334 56.2685 11.3477C57.3704 11.3888 58.4929 11.3614 59.6702 11.3614C59.2869 12.7714 58.9104 14.1129 58.5408 15.4339C57.3704 19.5816 56.2 23.7431 55.0433 27.9045C54.9543 28.2262 54.9133 28.5752 54.9133 28.9175C54.8996 31.1898 54.9133 33.4553 54.9133 35.7277V36.4669H50.8956C50.8819 36.2616 50.8545 36.0562 50.8545 35.8509C50.8545 34.5641 50.7518 33.2705 50.8682 31.9975C51.1625 28.938 50.1906 26.1249 49.4035 23.2776C48.3631 19.5132 47.3091 15.735 46.2687 11.9706C46.214 11.7926 46.1934 11.601 46.1387 11.382H50.2385C51.1009 15.5365 51.9702 19.6911 52.8736 23.8868ZM131.482 28.6574H124.556C124.631 30.0468 124.658 31.3678 124.802 32.6751C124.905 33.5854 125.404 33.9755 126.192 33.9824C127.013 33.9961 127.492 33.5854 127.684 32.6819C127.745 32.3876 127.786 32.0933 127.814 31.7921C127.841 31.5252 127.855 31.2377 127.875 30.8545C129.046 30.916 130.189 30.9845 131.318 31.0324C131.975 32.9831 130.791 35.4882 128.799 36.2616C127.232 36.8776 125.623 36.8776 124.022 36.4053C122.838 36.0562 121.955 35.3034 121.558 34.1466C121.188 33.0652 120.839 31.9359 120.764 30.8065C120.559 28.0208 120.483 25.2078 120.908 22.4152C120.983 21.9498 121.113 21.5049 121.257 21.0532C121.832 19.1915 123.084 18.0485 125.021 17.8568C126.075 17.7541 127.163 17.7952 128.204 17.9732C129.888 18.2675 130.784 19.479 131.174 21.0669C131.352 21.8129 131.482 22.5795 131.51 23.3392C131.517 25.0846 131.482 26.8162 131.482 28.6574ZM127.547 26.255C127.547 24.8792 127.56 23.5856 127.533 22.2852C127.533 21.9772 127.417 21.6555 127.3 21.3612C127.068 20.7862 126.582 20.6288 126 20.6288C125.418 20.6288 125.049 20.9231 124.905 21.4502C124.467 23.0312 124.61 24.6465 124.624 26.2687C125.671 26.255 126.623 26.255 127.547 26.255Z" fill="#1D2939"/>
<path d="M86.5551 14.7152H82.4827V11.4161H94.6384V14.6946H90.5934V36.4669H86.562L86.5551 14.7152Z" fill="#1D2939"/>
</g>
<defs>
<clipPath id="clip0_2733_20982">
<rect width="132" height="48" fill="white" transform="translate(0 0.5)"/>
</clipPath>
</defs>
</svg>
